<?xml version="1.0" standalone="no"?>
<!DOCTYPE svg PUBLIC "-//W3C//DTD SVG 20010904//EN"
 "http://www.w3.org/TR/2001/REC-SVG-20010904/DTD/svg10.dtd">
<svg version="1.0" xmlns="http://www.w3.org/2000/svg"
 width="360.000000pt" height="360.000000pt" viewBox="0 0 360.000000 360.000000"
 preserveAspectRatio="xMidYMid meet">

<g transform="translate(0.000000,360.000000) scale(0.100000,-0.100000)"
fill="#000000" stroke="none">
<path d="M2128 2790 c-137 -139 -212 -260 -277 -443 l-31 -89 0 -436 0 -436
51 89 c83 147 227 324 336 412 21 18 21 21 28 511 4 273 3 492 -1 492 -5 0
-53 -45 -106 -100z"/>
<path d="M2358 2704 l-48 -24 0 -408 0 -407 -37 -25 c-69 -46 -199 -184 -262
-278 -82 -122 -86 -137 -20 -78 79 71 219 162 326 213 l93 44 0 495 c0 272 -1
494 -2 494 -2 -1 -24 -12 -50 -26z"/>
<path d="M1710 2029 c0 -88 -66 -252 -124 -308 l-36 -35 -31 30 c-17 16 0 -12
38 -63 38 -50 90 -129 116 -175 l47 -83 0 333 c0 182 -2 332 -5 332 -3 0 -5
-14 -5 -31z"/>
<path d="M1440 1795 c13 -14 26 -25 28 -25 3 0 -5 11 -18 25 -13 14 -26 25
-28 25 -3 0 5 -11 18 -25z"/>
<path d="M2509 1693 c-13 -16 -12 -17 4 -4 9 7 17 15 17 17 0 8 -8 3 -21 -13z"/>
<path d="M2608 1635 c-1 -30 0 -55 5 -55 4 0 7 25 7 55 0 71 -7 71 -12 0z"/>
<path d="M2440 1660 c-8 -5 -10 -10 -5 -10 6 0 17 5 25 10 8 5 11 10 5 10 -5
0 -17 -5 -25 -10z"/>
<path d="M2300 1593 c-91 -49 -289 -192 -267 -193 17 0 87 41 82 49 -7 13 91
84 196 140 52 28 90 51 84 51 -5 0 -48 -21 -95 -47z m-190 -147 c0 -2 -7 -7
-16 -10 -8 -3 -12 -2 -9 4 6 10 25 14 25 6z"/>
<path d="M2510 1570 l-45 -7 40 -1 c22 0 49 3 60 8 23 10 9 10 -55 0z"/>
<path d="M2316 1523 c-59 -19 -106 -36 -104 -38 2 -2 60 13 128 35 69 21 116
39 105 39 -11 -1 -69 -16 -129 -36z"/>
<path d="M2160 1470 c-13 -9 -13 -10 0 -10 8 0 22 5 30 10 13 9 13 10 0 10 -8
0 -22 -5 -30 -10z"/>
</g>
</svg>
